<svg width="111" height="30" viewBox="0 0 111 30" fill="none" xmlns="http://www.w3.org/2000/svg">
<g clip-path="url(#clip0)">
<path d="M28.4554 0H28.4544C26.6404 0 25.1699 1.47309 25.1699 3.29024V26.7098C25.1699 28.5269 26.6404 30 28.4544 30H28.4554C30.2694 30 31.74 28.5269 31.74 26.7098V3.29024C31.74 1.47309 30.2694 0 28.4554 0Z" fill="#99FFFF"/>
<path d="M26.136 0.96031L13.5657 13.5526C12.283 14.8375 12.283 16.9208 13.5657 18.2057L13.5664 18.2064C14.8491 19.4913 16.9287 19.4913 18.2114 18.2064L30.7818 5.61412C32.0644 4.32921 32.0644 2.24594 30.7818 0.961024L30.781 0.960309C29.4984 -0.324609 27.4187 -0.324608 26.136 0.96031Z" fill="#33CCCC"/>
<path d="M0.958955 0.959508L0.95824 0.960224C-0.32444 2.24514 -0.32444 4.32841 0.95824 5.61332L13.5286 18.2056C14.8113 19.4905 16.8909 19.4905 18.1736 18.2056L18.1743 18.2049C19.457 16.92 19.457 14.8367 18.1743 13.5518L5.60395 0.959507C4.32127 -0.32541 2.24163 -0.32541 0.958955 0.959508Z" fill="#66CCFF"/>
<path d="M18.1734 13.552L15.8695 11.2441L13.5656 13.552C12.951 14.1709 12.606 15.0083 12.606 15.8812C12.606 16.7542 12.951 17.5916 13.5656 18.2104C13.8677 18.5143 14.2267 18.7555 14.6221 18.9201C15.0174 19.0846 15.4414 19.1693 15.8695 19.1693C16.2976 19.1693 16.7216 19.0846 17.1169 18.9201C17.5123 18.7555 17.8713 18.5143 18.1734 18.2104C18.7885 17.5919 19.1339 16.7543 19.1339 15.8812C19.1339 15.0081 18.7885 14.1706 18.1734 13.552Z" fill="#CCFFFF"/>
<path d="M3.28451 30.001C2.41405 29.9984 1.58002 29.6507 0.9646 29.034C0.349183 28.4174 0.00239977 27.5818 0 26.7098V3.29125C0 1.48157 1.36475 0 3.28451 0C5.20527 0 6.57003 1.48157 6.57003 3.29125V26.7098C6.56736 27.5819 6.22035 28.4175 5.60478 29.0341C4.9892 29.6508 4.15506 29.9984 3.28451 30.001Z" fill="#000066"/>
<path d="M55.6012 22.1202V11.5558L51.0682 19.6573H50.0886L45.5394 11.5558V22.1202H43.8066V8.45798H45.6314L50.5688 17.3292L55.5223 8.45798H57.3278V22.1202H55.6012Z" fill="white"/>
<path d="M61.9629 10.1895V8.073H63.6532V10.1895H61.9629ZM61.9629 22.1201V12.0752H63.6532V22.1201H61.9629Z" fill="white"/>
<path d="M73.1965 21.6198C73.0954 21.6715 72.96 21.7322 72.7921 21.8031C72.6243 21.874 72.4373 21.9439 72.226 22.0148C71.9998 22.0884 71.7688 22.1463 71.5346 22.188C71.2776 22.2331 71.0171 22.2555 70.7561 22.2548C70.1832 22.2689 69.6221 22.0906 69.1619 21.7484C68.7138 21.4109 68.4897 20.8816 68.4897 20.1605V13.4059H67.127V12.0752H68.4907V8.72723H70.1809V12.0752H72.4282V13.4028H70.1809V19.638C70.2062 20.0107 70.3285 20.279 70.5459 20.4481C70.7665 20.6159 71.0373 20.7041 71.3142 20.6983C71.625 20.7016 71.9336 20.6463 72.224 20.5352C72.4193 20.4637 72.6086 20.3767 72.7901 20.275L73.1965 21.6198Z" fill="white"/>
<path d="M79.9202 22.3125C79.1117 22.3124 78.3081 22.186 77.5385 21.9378C76.7997 21.7119 76.1126 21.3423 75.5166 20.8501L76.2465 19.7149C76.7843 20.1357 77.3798 20.4768 78.0146 20.7276C78.6099 20.9528 79.2414 21.0667 79.8777 21.0638C80.6076 21.0638 81.1869 20.9197 81.6155 20.6314C81.82 20.5017 81.987 20.3206 82.1 20.1061C82.2129 19.8917 82.2679 19.6514 82.2595 19.4091C82.2659 19.1878 82.2057 18.9697 82.0866 18.7832C81.9522 18.5934 81.7744 18.4385 81.568 18.3316C81.2874 18.1832 80.991 18.067 80.6845 17.9852C80.3252 17.8833 79.9091 17.7743 79.436 17.6581C78.8335 17.5042 78.3148 17.3567 77.8801 17.2156C77.4997 17.1001 77.1372 16.9317 76.8035 16.7153C76.5405 16.5436 76.3283 16.3044 76.1889 16.0226C76.0519 15.7074 75.9863 15.3657 75.9968 15.0221C75.9882 14.5587 76.0904 14.1 76.295 13.6843C76.4889 13.299 76.7683 12.9633 77.1118 12.703C77.4803 12.4283 77.8969 12.2252 78.3401 12.1045C78.8309 11.9665 79.3387 11.8983 79.8484 11.902C80.5689 11.8962 81.2845 12.0201 81.9613 12.2676C82.5663 12.4836 83.1264 12.8097 83.6131 13.2296L82.8448 14.2504C82.4292 13.8823 81.9466 13.5979 81.4234 13.4129C80.9043 13.2275 80.3571 13.1329 79.806 13.1334C79.1913 13.1334 78.6693 13.2651 78.24 13.5284C77.8107 13.7917 77.5964 14.2116 77.5971 14.7882C77.59 14.9883 77.6328 15.187 77.7214 15.3664C77.8202 15.5364 77.9631 15.6763 78.1349 15.7715C78.3679 15.9027 78.6161 16.0047 78.8739 16.0753C79.1751 16.1644 79.5371 16.2606 79.9596 16.3639C80.6248 16.5178 81.2041 16.6748 81.6974 16.8348C82.1311 16.9679 82.545 17.159 82.9277 17.4029C83.2302 17.5958 83.4808 17.8601 83.6576 18.1726C83.828 18.5066 83.9114 18.8782 83.9002 19.2531C83.9002 20.1902 83.5417 20.9328 82.8246 21.481C82.1075 22.0292 81.1394 22.3064 79.9202 22.3125Z" fill="white"/>
<path d="M90.6187 22.3124C89.5694 22.3124 88.7755 21.9597 88.237 21.2542C87.6985 20.5487 87.4289 19.4968 87.4282 18.0986V12.0751H89.1185V17.7715C89.1185 19.8239 89.8295 20.8501 91.2515 20.8501C91.9559 20.846 92.6399 20.6129 93.2006 20.1858C93.8213 19.727 94.2926 19.0945 94.5553 18.368V12.0751H96.2455V20.042C96.2455 20.4396 96.4248 20.6449 96.7833 20.6577V22.12C96.5913 22.1457 96.4406 22.1619 96.3315 22.1686C96.2233 22.1747 96.1171 22.1778 96.015 22.1778C95.7088 22.1878 95.4102 22.0815 95.179 21.88C95.0714 21.7882 94.9842 21.6748 94.9231 21.5471C94.862 21.4194 94.8283 21.2803 94.8242 21.1387L94.7878 19.9681C94.3669 20.6982 93.7562 21.3002 93.0207 21.7099C92.285 22.1142 91.4578 22.3217 90.6187 22.3124Z" fill="white"/>
<path d="M106.006 13.5567C105.214 13.5669 104.441 13.7931 103.768 14.2109C103.13 14.6106 102.646 15.2144 102.394 15.9244V22.1201H100.704V12.0751H102.279V14.4043C102.597 13.7452 103.064 13.1691 103.642 12.7212C104.161 12.3094 104.789 12.0584 105.449 11.9992H105.775C105.853 11.9985 105.93 12.005 106.006 12.0184V13.5567Z" fill="white"/>
<path d="M109.31 10.1895V8.073H111V10.1895H109.31ZM109.31 22.1201V12.0752H111V22.1201H109.31Z" fill="white"/>
</g>
<defs>
<clipPath id="clip0">
<rect width="111" height="30" fill="white"/>
</clipPath>
</defs>
</svg>

